<mxfile host="app.diagrams.net" modified="2023-06-03T17:39:11.353Z" agent="5.0 (Windows NT 10.0; Win64; x64) AppleWebKit/537.36 (KHTML, like Gecko) Chrome/113.0.0.0 Safari/537.36" etag="C75Wtx5Jab2LFR2Ynpsy" version="20.8.10" type="github">
  <diagram id="BatEJgUIg3Dkc_VzbWdP" name="Page-1">
    <mxGraphModel dx="378" dy="215" grid="1" gridSize="10" guides="1" tooltips="1" connect="1" arrows="1" fold="1" page="1" pageScale="1" pageWidth="850" pageHeight="1100" math="0" shadow="0">
      <root>
        <mxCell id="0" />
        <mxCell id="1" parent="0" />
        <mxCell id="qQ67iQdJBUYJMhMAdBRw-4" value="" style="rounded=1;whiteSpace=wrap;html=1;" vertex="1" parent="1">
          <mxGeometry y="10" width="260" height="160" as="geometry" />
        </mxCell>
        <mxCell id="qQ67iQdJBUYJMhMAdBRw-1" value="scraping stock" style="text;html=1;strokeColor=none;fillColor=none;align=center;verticalAlign=middle;whiteSpace=wrap;rounded=0;" vertex="1" parent="1">
          <mxGeometry x="30" y="10" width="120" height="30" as="geometry" />
        </mxCell>
        <mxCell id="qQ67iQdJBUYJMhMAdBRw-7" value="&lt;ul style=&quot;font-size: 7px;&quot;&gt;&lt;li style=&quot;font-size: 7px;&quot;&gt;&lt;span style=&quot;background-color: initial; font-size: 7px;&quot;&gt;get stock by ticker,&amp;nbsp;&lt;/span&gt;get price, market cap&lt;/li&gt;&lt;li style=&quot;font-size: 7px;&quot;&gt;get date and time price was checked&lt;/li&gt;&lt;li style=&quot;font-size: 7px;&quot;&gt;check what google trending was for the day&lt;/li&gt;&lt;/ul&gt;" style="text;strokeColor=none;fillColor=none;html=1;whiteSpace=wrap;verticalAlign=top;overflow=hidden;align=left;fontSize=7;" vertex="1" parent="1">
          <mxGeometry x="10" y="40" width="230" height="120" as="geometry" />
        </mxCell>
        <mxCell id="qQ67iQdJBUYJMhMAdBRw-15" value="&lt;h1&gt;MVP&lt;/h1&gt;&lt;p&gt;User should be able to log in and check price of stock by ticker symbol&lt;/p&gt;" style="text;html=1;spacing=5;spacingTop=-20;whiteSpace=wrap;overflow=hidden;rounded=0;fontSize=7;fillColor=#f5f5f5;strokeColor=#666666;fontColor=#333333;" vertex="1" parent="1">
          <mxGeometry x="20" y="180" width="190" height="120" as="geometry" />
        </mxCell>
      </root>
    </mxGraphModel>
  </diagram>
</mxfile>
